<svg xmlns="http://www.w3.org/2000/svg" xmlns:xlink="http://www.w3.org/1999/xlink" data-name="Layer 1" width="698" height="698"><rect id="backgroundrect" width="100%" height="100%" x="0" y="0" fill="none" stroke="none"/><defs><linearGradient id="b247946c-c62f-4d08-994a-4c3d64e1e98f" x1="0.5" y1="1" x2="0.5" y2="0"><stop offset="0" stop-color="gray" stop-opacity="0.25"/><stop offset="0.54" stop-color="gray" stop-opacity="0.12"/><stop offset="1" stop-color="gray" stop-opacity="0.1"/></linearGradient></defs><title>profile pic</title><g class="currentLayer" style=""><title>Layer 1</title><g opacity="0.5" id="svg_1"><circle cx="349" cy="349" r="349" fill="url(#b247946c-c62f-4d08-994a-4c3d64e1e98f)" id="svg_2"/></g><circle cx="349.67999267578125" cy="346.7699890136719" r="341.6400146484375" fill="#f5f5f5" id="svg_3"/><path d="M350,689.76 a340,340 0 0 0 187.79,-56.2 c-12.59,-68.8 -60.5,-72.72 -60.5,-72.72 H213.08999999999997 s-45.21,3.71 -59.33,67 A340.07,340.07 0 0 0 350,689.76 z" fill="#e0b973" id="svg_4" class="selected" fill-opacity="1"/><circle cx="346.3699951171875" cy="339.57000732421875" r="164.89999389648438" fill="#333" id="svg_5"/><path d="M293.15,476.92H398.81a0,0,0,0,1,0,0v84.53A52.83,52.83,0,0,1,346,614.28h0a52.83,52.83,0,0,1-52.83-52.83V476.92a0,0,0,0,1,0,0Z" opacity="0.1" id="svg_6"/><path d="M296.5,473h99a3.35,3.35,0,0,1,3.35,3.35v81.18A52.83,52.83,0,0,1,346,610.37h0a52.83,52.83,0,0,1-52.83-52.83V476.35A3.35,3.35,0,0,1,296.5,473Z" fill="#fdb797" id="svg_7"/><path d="M293.34000000000003,516.82 a152.07,152.07 0 0 0 105.66,0.29000000000000004 v-13 H293.34000000000003 z" opacity="0.1" id="svg_8"/><circle cx="346.3699951171875" cy="372.44000244140625" r="151.4499969482422" fill="#fdb797" id="svg_9"/><path d="M238.49,234.68 S302.32000000000005,364.24 482.37,289 l-41.92,-65.73 l-74.31,-26.67 z" opacity="0.1" id="svg_10"/><path d="M238.49,232.77999999999997 s63.83,129.56 243.88,54.3 l-41.92,-65.73 l-74.31,-26.67 z" fill="#333" id="svg_11"/><path d="M237.93,224 a87.49,87.49 0 0 1 21.69,-35.27 c29.79,-29.45 78.63,-35.66 103.68,-69.24 c6,9.32 1.36,23.65 -9,27.65 c24,-0.16000000000000003 51.81,-2.26 65.38,-22 a44.89,44.89 0 0 1 -7.57,47.4 c21.27,1 44,15.4 45.34,36.65 c0.92,14.16 -8,27.56 -19.59,35.68 s-25.71,11.85 -39.56,14.9 C357.86,268.7 211.54000000000002,306.07 237.93,224 z" fill="#333" id="svg_12"/><ellipse cx="194.86000061035156" cy="372.29998779296875" rx="14.09000015258789" ry="26.420000076293945" fill="#fdb797" id="svg_13"/><ellipse cx="497.79998779296875" cy="372.29998779296875" rx="14.09000015258789" ry="26.420000076293945" fill="#fdb797" id="svg_14"/></g></svg>