<svg xmlns="http://www.w3.org/2000/svg" xmlns:xlink="http://www.w3.org/1999/xlink" data-name="Layer 1" width="1009.54" height="839.64" style=""><rect id="backgroundrect" width="100%" height="100%" x="0" y="0" fill="none" stroke="none"/><defs><linearGradient id="f9d7795c-47ab-4264-adf8-fc9a284cd87a" x1="-0.00028072976757847047" y1="0.49994697477136735" x2="1.000099428199342" y2="0.49994697477136735"><stop offset="0" stop-color="gray" stop-opacity="0.25"/><stop offset="0.54" stop-color="gray" stop-opacity="0.12"/><stop offset="1" stop-color="gray" stop-opacity="0.1"/></linearGradient></defs><title>personalization</title><g class="currentLayer" style=""><title>Layer 1</title><path d="M586.5499966430664,111.39999969482423 c-64.72,-2.25 -126.36,-23.14 -185.22,-46 S284.1699966430664,17.20999969482422 220.99999664306642,5.09999969482422 c-40.63,-7.79 -87.1,-8.89 -119.83,12.89 c-31.51,21 -41.69,57.15 -47.16,90.73 c-4.12,25.26 -6.54,51.85 4.74,75.49 c7.84,16.42 21.74,30.22 31.36,45.95 c33.47,54.72 9.81,122.2 -26.45,175.63 c-17,25.07 -36.75,49 -49.88,75.66 s-19.2,57.25 -7.71,84.47 c11.38,27 38.51,47.24 67.9,61.49 c59.69,28.95 130,37.23 198.61,41.92 c151.83,10.39 304.46,5.890000000000001 456.69,1.3900000000000001 c56.34,-1.6700000000000002 112.92,-3.36 168.34,-12.07 c30.78,-4.84 62.55,-12.51 84.9,-31.05 c28.36,-23.53 35.39,-63.37 16.38,-92.88 c-31.88,-49.49 -120,-61.78 -142.31,-114.89 c-12.26,-29.24 0.33000000000000007,-61.8 18.16,-88.92 c38.24,-58.16 102.33,-109.19 105.7,-175.67 c2.3200000000000003,-45.66 -28.49,-91.39 -76.13,-113 c-49.93,-22.64 -119.18,-19.8 -156,17.69 C710.3599966430664,98.52999969482423 643.6999966430664,113.37999969482422 586.5499966430664,111.39999969482423 z" fill="#38d39f" opacity="0.1" id="svg_1" class=""/><ellipse cx="483.489990234375" cy="780.989990234375" rx="303.9700012207031" ry="41.119998931884766" fill="#38d39f" opacity="0.1" id="svg_2"/><path d="M333.5717943811417,658.5699996948242 s21,-3.36 33.6,11.48 c0,0 -9.24,7.28 -29.12,-2.8 z" fill="#e0b973" id="svg_3" class="" fill-opacity="1"/><path d="M330.7699966430664,658.2399996948242 S317.36999664306643,674.8199996948242 323.9399966430664,693.0899996948242 c0,0 10.92,-4.37 12.11,-26.63 z" fill="#e0b973" id="svg_4" class="" fill-opacity="1"/><path d="M319.33179438114166,631.1299996948242 s8.4,-15.4 42,6.16 c0,0 -4.48,10.36 -19.32,9.52 S323.20179438114167,639.2499996948242 319.33179438114166,631.1299996948242 z" fill="#e0b973" id="svg_5" class="" fill-opacity="1"/><path d="M317.1217943811417,630.0199996948243 s-17.43,-2 -19.12,37.9 c0,0 11.05,2.3 18.9,-10.33 S321.5017943811417,637.8999996948243 317.1217943811417,630.0199996948243 z" fill="#e0b973" id="svg_6" class="" fill-opacity="1"/><path d="M307.5235921192169,598.1999996948242 s9.8,-27.17 45.37,-7.85 c0,0 -8.12,24.93 -41.73,17.09 z" fill="#e0b973" id="svg_7" class="" fill-opacity="1"/><path d="M296.6035921192169,557.5899996948242 s18.48,-27.44 51.25,-2 c0,0 -11.48,25.76 -48.45,11.76 z" fill="#e0b973" id="svg_8" class="" fill-opacity="1"/><path d="M292.68359211921694,518.9499996948242 s21.56,-25.2 54,0 c0,0 -20.45,22.12 -54,6.44 z" fill="#e0b973" id="svg_9" class="" fill-opacity="1"/><path d="M289.8853898572922,481.42999969482423 s21.84,-26.33 52.93,-1.4 c0,0 -24.65,23.24 -52.93,7.5600000000000005 z" fill="#e0b973" id="svg_10" class="" fill-opacity="1"/><path d="M291.84538985729216,448.0999996948242 s23,-33.88 52.09,-10.92 c0,0 -24.65,29.13 -52.09,17.36 z" fill="#e0b973" id="svg_11" class="" fill-opacity="1"/><path d="M297.16538985729215,409.17999969482423 s24.36,-33.6 52.65,-7.84 c0,0 -28.85,29.12 -52.65,14 z" fill="#e0b973" id="svg_12" class="" fill-opacity="1"/><path d="M303.6099965238571,374.3899996948242 s28.83,-31.57 54,-19 c0,0 -30.06,33.53 -55.26,27.37 z" fill="#e0b973" id="svg_13" class="" fill-opacity="1"/><path d="M315.3653898572922,341.41999969482424 s33.33,-38.65 52.65,-25.77 c0,0 -24.52,30 -55,33.05 z" fill="#e0b973" id="svg_14" class="" fill-opacity="1"/><path d="M329.91538985729215,303.1599996948242 s29.14,-31.58 50.42,-23.74 c0,0 -24.92,32.77 -54.33,33.61 z" fill="#e0b973" id="svg_15" class="" fill-opacity="1"/><path d="M343.09538985729216,267.3799996948242 s32.2,-30.24 46.2,-24.92 c0,0 -23.24,33.6 -47.6,31.64 z" fill="#e0b973" id="svg_16" class="" fill-opacity="1"/><path d="M354.2899966430664,234.3399996948242 s27.72,-36.12 42.84,-33.32 c0,0 -16.8,32.2 -42.84,37 z" fill="#38d39f" id="svg_17"/><path d="M368.2599966430664,189.81999969482422 s24.51,-27.7 37.74,-27.63 c0,0 -19.34,37 -38.74,36.66 z" fill="#38d39f" id="svg_18"/><path d="M376.5499966430664,160.12999969482422 l23.66,-57.68 s1.19,52.14 -26.68,68.38 z" fill="#e0b973" id="svg_19" class="" fill-opacity="1"/><path d="M386.1499966430664,96.51999969482422 s3.92,-48.16 1.4,-52.08 c0,0 16.93,40 -1.56,73.36 z" fill="#e0b973" id="svg_20" class="" fill-opacity="1"/><path d="M306.0517943811417,597.5499996948242 s-24.55,-15.21 -40.43,22 c0,0 21.84,14.5 43.31,-12.51 z" fill="#e0b973" id="svg_21" class="" fill-opacity="1"/><path d="M295.8235921192169,556.0399996948242 s-30.1,-13.73 -44.71,25.12 c0,0 23.26,16 47.45,-15.3 z" fill="#e0b973" id="svg_22" class="" fill-opacity="1"/><path d="M291.2835921192169,521.2599996948243 s-21.56,-25.2 -54,0 c0,0 20.44,22.12 54,6.44 z" fill="#e0b973" id="svg_23" class="" fill-opacity="1"/><path d="M289.15538985729216,481.42999969482423 s-21.85,-26.33 -52.93,-1.4 c0,0 24.64,23.24 52.93,7.5600000000000005 z" fill="#e0b973" id="svg_24" class="" fill-opacity="1"/><path d="M291.84538985729216,449.0599996948242 s-15.32,-37.95 -48.62,-21.63 c0,0 18,33.66 47.27,27.93 z" fill="#e0b973" id="svg_25" class="" fill-opacity="1"/><path d="M299.09538985729216,408.98999969482423 s-15.22,-38.61 -49,-20.71 c0,0 20.68,35.39 47.5,26.68 z" fill="#e0b973" id="svg_26" class="" fill-opacity="1"/><path d="M308.53538985729216,374.5899996948242 s-6,-42.34 -33.95,-46.13 c0,0 5.93,44.64 30.22,53.75 z" fill="#e0b973" id="svg_27" class="" fill-opacity="1"/><path d="M316.08538985729217,341.48999969482423 s-2.35,-51 -25.5,-52.77 c0,0 0.78,38.7 22.89,60 z" fill="#e0b973" id="svg_28" class="" fill-opacity="1"/><path d="M332.3253898572922,301.6999996948242 s-6.91,-42.4 -29,-47.59 c0,0 2.74,41.07 26.81,58 z" fill="#e0b973" id="svg_29" class="" fill-opacity="1"/><path d="M345.71538985729217,267.6899996948242 s-0.2400000000000001,-44.18 -13.74,-50.67 c0,0 -8.37,40 9.83,56.31 z" fill="#e0b973" id="svg_30" class="" fill-opacity="1"/><path d="M355.3199966430664,232.6964042186737 s-1.9,-45.5 -15.870000000000001,-51.91 c0,0 -4.79,36 13.77,54.88 z" fill="#38d39f" id="svg_31" class=""/><path d="M357.0053898572922,232.6964042186737 s-1.9,-45.5 -15.870000000000001,-51.91 c0,0 -4.79,36 13.77,54.88 z" fill="#e0b973" class="" id="svg_124" fill-opacity="1"/><path d="M371.90538985729216,193.4199996948242 s-0.0900000000000001,-37 -10.07,-45.68 c0,0 -9.92,40.54 4.86,53.12 z" fill="#e0b973" id="svg_32" class="" fill-opacity="1"/><path d="M375.36999664306643,158.30999969482423 l-9.7,-61.59 s-13.2,50.47 10.16,72.7 z" fill="#e0b973" id="svg_33" class="" fill-opacity="1"/><path d="M377.2699966430664,97.09999969482422 s-24.93,-41.39 -24.41,-46 c0,0 2.64,43.4 34,65 z" fill="#38d39f" id="svg_34" class=""/><path d="M377.2699966430664,97.09999969482422 s-24.93,-41.39 -24.41,-46 c0,0 2.64,43.4 34,65 z" fill="#e0b973" class="" id="svg_123" fill-opacity="1"/><path d="M380.1899966430664,84.87999969482422 S356.6699966430664,26.06999969482422 346.0299966430664,21.30999969482422 c0,0 33.6,17.08 36.12,61.89 z" fill="#e0b973" id="svg_35" class="" fill-opacity="1"/><path d="M380.1899966430664,84.87999969482422 S356.6699966430664,26.06999969482422 346.0299966430664,21.30999969482422 c0,0 33.6,17.08 36.12,61.89 z" fill="#e0b973" class="" fill-opacity="1" id="svg_122"/><path d="M367.1299966430664,199.1699996948242 l-1.61,-0.49000000000000005 c19.85,-64.73 24.81,-106 13.95,-116.34 l1.1600000000000001,-1.22 C392.1299966430664,92.02999969482421 387.4699966430664,132.81999969482422 367.1299966430664,199.1699996948242 z" fill="#444053" id="svg_36"/><path d="M312.4699966430664,350.6899996948242 l-2.37,-0.8400000000000001 c2.1,-5.93 4.37,-11.95 6.75,-17.89 c20.72,-51.64 38.36,-99.67 49.67,-136.55 l2.07,-1 c-11.33,36.95 -28.65,86.83 -49.4,138.53 C316.8199966430664,338.8199996948242 314.5599966430664,344.8199996948242 312.4699966430664,350.6899996948242 z" fill="#444053" id="svg_37"/><path d="M362.5599966430664,707.0199996948243 c-0.32000000000000006,-0.36000000000000004 -32.5,-36.58 -54.92,-98.44 A364.43,364.43 0 0 1 285.9399966430664,495.8199996948242 c-1.54,-48.13 8.56,-101.87 25.86,-150.68 l1.8800000000000001,2.2 c-38.83,109.56 -23.4,203.45 -2.94,260 c22.2,61.29 54,97.13 54.32,97.48 z" fill="#444053" id="svg_38"/><rect x="642.7999877929688" y="289.82000732421875" width="8.859999656677246" height="73.0199966430664" rx="2.2899999618530273" ry="2.2899999618530273" fill="#3a3768" id="svg_39"/><rect x="348.3699951171875" y="232.61000061035156" width="4.96999979019165" height="24.040000915527344" rx="2.2899999618530273" ry="2.2899999618530273" fill="#3a3768" id="svg_40"/><rect x="348.19000244140625" y="276.6300048828125" width="5.599999904632568" height="41.84000015258789" rx="2.2899999618530273" ry="2.2899999618530273" fill="#3a3768" id="svg_41"/><rect x="348.2799987792969" y="333.1099853515625" width="5.329999923706055" height="42.20000076293945" rx="2.2899999618530273" ry="2.2899999618530273" fill="#3a3768" id="svg_42"/><rect x="351.17999267578125" y="153.1699981689453" width="296.3999938964844" height="602.3900146484375" rx="38.9900016784668" ry="38.9900016784668" fill="#3a3768" id="svg_43" class=""/><path d="M605.7699966430664,168.81999969482422 H571.7699966430664 v4.09 a19.38,19.38 0 0 1 -19.39,19.38 H444.2499966430664 a19.38,19.38 0 0 1 -19.39,-19.38 V168.81999969482422 H393.0299966430664 a23.54,23.54 0 0 0 -23.54,23.54 V716.3299996948242 a23.54,23.54 0 0 0 23.54,23.54 H605.7699966430664 a23.54,23.54 0 0 0 23.54,-23.54 V192.39999969482423 A23.54,23.54 0 0 0 605.7699966430664,168.81999969482422 z" fill="#e0b973" id="svg_44" class="" fill-opacity="1" stroke-opacity="1" stroke="#2f2e41"/><rect x="470.7900085449219" y="171.16000366210938" width="41.38999938964844" height="8.399999618530273" rx="3.869999885559082" ry="3.869999885559082" fill="#e6e8ec" id="svg_45"/><circle cx="523.2100219726562" cy="175.36000061035156" r="4.769999980926514" fill="#e6e8ec" id="svg_46"/><path d="M750.1999966430664,126.74999969482423 s-84.2,-5.08 -74.28,53.92 c0,0 -2,10.43 7.48,15.16 c0,0 0.15000000000000002,-4.37 8.64,-2.88 a39.5,39.5 0 0 0 9.15,0.44000000000000006 A19.06,19.06 0 0 0 712.3699966430664,188.81999969482422 h0 s23.67,-9.78 32.87,-48.46 c0,0 6.8100000000000005,-8.44 6.54,-10.61 L737.5699966430664,135.81999969482422 s4.86,10.25 1,18.77 c0,0 -0.46,-18.4 -3.19,-18 c-0.55,0.08000000000000002 -7.38,3.55 -7.38,3.55 s8.35,17.85 2.05,30.83 c0,0 2.39,-22 -4.66,-29.54 l-10,5.84 s9.76,18.44 3.14,33.49 c0,0 1.7000000000000002,-23.08 -5.25,-32.07 l-9.06,7.07 s9.17,18.17 3.58,30.65 c0,0 -0.7300000000000001,-26.86 -5.54,-28.89 c0,0 -7.93,7 -9.14,9.86 c0,0 6.28,13.2 2.38,20.16 c0,0 -2.39,-17.9 -4.35,-18 c0,0 -7.9,11.86 -8.72,20 c0,0 0.3400000000000001,-12.09 6.8100000000000005,-21.12 c0,0 -7.640000000000001,1.31 -12.1,6.26 c0,0 1.23,-8.38 14.05,-9.12 c0,0 6.53,-9 8.27,-9.54 c0,0 -12.74,-1.07 -20.47,2.36 c0,0 6.8,-7.91 22.81,-4.3100000000000005 l8.95,-7.3100000000000005 s-16.78,-2.29 -23.9,0.24000000000000002 c0,0 8.19,-7 26.31,-1.9 l9.74,-5.82 s-14.31,-3.08 -22.83,-2 c0,0 9,-4.85 25.69,0.41000000000000003 l7,-3.13 s-10.48,-2.06 -13.55,-2.39 s-3.23,-1.17 -3.23,-1.17 a36.35,36.35 0 0 1 19.69,2.19 S750.4499966430664,127.67999969482423 750.1999966430664,126.74999969482423 z" fill="#e0b973" id="svg_47" class="" fill-opacity="1"/><path d="M663.8299966430664,100.50999969482422 s-38,-2.29 -33.56,24.37 c0,0 -0.8900000000000001,4.71 3.38,6.85 c0,0 0.07,-2 3.91,-1.31 a17.51,17.51 0 0 0 4.13,0.2 a8.56,8.56 0 0 0 5.05,-2.08 h0 s10.7,-4.42 14.86,-21.9 c0,0 3.07,-3.81 2.95,-4.79 l-6.42,2.74 s2.19,4.63 0.47000000000000003,8.48 c0,0 -0.21000000000000002,-8.31 -1.44,-8.12 c-0.25,0 -3.34,1.61 -3.34,1.61 s3.7800000000000002,8.07 0.93,13.93 c0,0 1.08,-9.94 -2.11,-13.35 L648.1199966430664,109.81999969482422 s4.41,8.33 1.42,15.13 c0,0 0.77,-10.43 -2.37,-14.49 l-4.09,3.2 s4.14,8.21 1.62,13.85 c0,0 -0.3400000000000001,-12.14 -2.51,-13.06 c0,0 -3.58,3.16 -4.13,4.46 c0,0 2.84,6 1.08,9.11 c0,0 -1.08,-8.09 -2,-8.13 c0,0 -3.5700000000000003,5.36 -3.94,9 a19.52,19.52 0 0 1 3.08,-9.54 a10.76,10.76 0 0 0 -5.47,2.83 s0.56,-3.79 6.35,-4.12 c0,0 3,-4.07 3.74,-4.32 c0,0 -5.76,-0.48000000000000004 -9.25,1.07 c0,0 3.07,-3.5700000000000003 10.3,-1.9500000000000002 l4,-3.3 s-7.59,-1 -10.8,0.11000000000000001 c0,0 3.7,-3.16 11.89,-0.8600000000000001 l4.4,-2.63 s-6.47,-1.3900000000000001 -10.32,-0.8900000000000001 c0,0 4.07,-2.19 11.61,0.18000000000000002 l3.15,-1.4100000000000001 s-4.74,-0.93 -6.13,-1.08 s-1.46,-0.53 -1.46,-0.53 a16.39,16.39 0 0 1 8.9,1 S663.9499966430664,100.92999969482423 663.8299966430664,100.50999969482422 z" fill="#e0b973" id="svg_48" class="" fill-opacity="1"/><rect x="395.9100036621094" y="226.17999267578125" width="206.9499969482422" height="439.239990234375" opacity="0.1" id="svg_49"/><path d="M596.5199966430664,788.0399996948242 s-4.88,-11.36 -7.06,-16.6 c-1.23,-3 -3.31,-3.5 -4.9,-3.43 l0.09000000000000002,-1 l0.39000000000000007,-4.73 l0.08000000000000002,-1 c3.77,-0.79 7,-1.4100000000000001 7,-1.4100000000000001 L589.7699966430664,638.5499996948242 s-1,-1.28 -3.42,-9 c-1.2,-3.85 -7,-8.58 -12.42,-12.35 c-0.8500000000000001,-0.5900000000000001 -1.6800000000000002,-1.15 -2.5,-1.6900000000000002 a62.39,62.39 0 0 1 6.21,-4.58 c3.08,-1.79 4.1,-12 4.1,-12 l-0.51,1 c0.51,-1 0,-27.07 0,-27.07 l-1.8,-27.06 s-1.28,-32.17 -11.28,-40.6 S545.5199966430664,493.8199996948242 545.5199966430664,493.8199996948242 l-7,-1.8 h0 l-12.9,-3.31 c-0.36000000000000004,-0.5900000000000001 -0.7100000000000001,-1.21 -1,-1.86 c-0.13,-0.25 -0.25,-0.51 -0.37000000000000005,-0.77 a30.2,30.2 0 0 0 12.75,-24.65 a29.73,29.73 0 0 0 -0.39000000000000007,-4.84 c0,-0.30000000000000004 -0.11000000000000001,-0.6100000000000001 -0.17,-0.91 a25.2,25.2 0 0 0 3,-2.41 a13.63,13.63 0 0 0 3.66,-4.49 h0 a7.57,7.57 0 0 0 0.3400000000000001,-1.05 c0,-0.1 0,-0.2 0.06000000000000001,-0.31000000000000005 s0.09000000000000002,-0.53 0.12000000000000001,-0.8 c0,-0.1 0,-0.2 0,-0.30000000000000004 c0,-0.29000000000000004 0,-0.5900000000000001 0,-0.8800000000000001 c0,-0.07 0,-0.14 0,-0.22000000000000003 c0,-0.33000000000000007 -0.05000000000000001,-0.6600000000000001 -0.1,-1 a0.13,0.13 0 0 0 0,-0.06000000000000001 h0 a17.21,17.21 0 0 0 -0.9,-3.4 c-1,-2.58 -2.3,-5 -2.77,-7.75 c-0.5800000000000001,-3.25 0.09000000000000002,-6.8 -1.46,-9.72 a8.67,8.67 0 0 0 -6.09,-4.19 a14.35,14.35 0 0 0 -7.52,0.8600000000000001 a10.7,10.7 0 0 1 -3.71,1 a7.75,7.75 0 0 1 -2.71,-0.6600000000000001 a40.19,40.19 0 0 1 -8.4,-4.51 a40.22,40.22 0 0 0 -6,-3.92 a8.12,8.12 0 0 0 -6.92,-0.28 c-3.7,1.8800000000000001 -4.4,7.12 -7.84,9.43 c-2.37,1.6 -5.46,1.44 -8.32,1.54 s-6.1,0.81 -7.51,3.29 c-1,1.7200000000000002 -0.7600000000000001,3.77 -0.5700000000000001,5.78 l0.06000000000000001,0.6800000000000002 c0,0.24000000000000002 0,0.49000000000000005 0.06000000000000001,0.7300000000000001 a18.37,18.37 0 0 1 -1.13,7.5600000000000005 c-1.3800000000000001,3.66 -4,7.27 -3.91,11 h0 a7.66,7.66 0 0 0 0.23,1.7600000000000002 a8.45,8.45 0 0 0 0.28,0.8500000000000001 h0 a37.24,37.24 0 0 0 1.85,3.6100000000000003 l0.09000000000000002,0.16000000000000003 c0.07,0.14 0.14,0.28 0.2,0.42000000000000004 s0.18000000000000002,0.38000000000000006 0.25,0.5700000000000001 s0.08000000000000002,0.19000000000000003 0.11000000000000001,0.28 s0.13,0.37000000000000005 0.18000000000000002,0.56 a5.36,5.36 0 0 1 0.21000000000000002,1.7400000000000002 a16.2,16.2 0 0 0 -0.19000000000000003,2.29 a1.6800000000000002,1.6800000000000002 0 0 0 1.34,1.6300000000000001 a2.23,2.23 0 0 0 1.1600000000000001,-0.36000000000000004 a18.57,18.57 0 0 0 2.55,-1.75 c0,0.32000000000000006 0,0.6400000000000001 0.06000000000000001,1 a30.26,30.26 0 0 0 9.09,18.83 c0,0.31000000000000005 0,0.6300000000000001 -0.07,1 s-0.05000000000000001,0.7200000000000001 -0.07,1.09 h0 l-11.2,3.52 s0.06000000000000001,0.2 0.18000000000000002,0.54 l-1.18,0.47000000000000003 h0 c-5.8100000000000005,2.35 -12.28,5.27 -15.9,7.92 c-1.6,1.1600000000000001 -3.06,2.11 -4.37,2.9 a25,25 0 0 0 -10.36,12.55 l-0.15000000000000002,0.38000000000000006 c-1,2.29 -5.9,17.87 -5.9,17.87 s-3.59,8.68 -4.11,14.3 c0,0 -5.9,18.63 -4.36,30.89 c0,0 -4.62,17.62 -2.8200000000000003,20.42 c0,0 -1.84,7.58 6.24,15.21 c-0.5900000000000001,0.36000000000000004 -1.23,0.7500000000000001 -1.9,1.18 c-6.26,3.94 -15.29,10.33 -16.83,15.26 c-2.39,7.67 -3.42,9 -3.42,9 L406.6499966430664,758.8199996948242 s3.23,0.6200000000000001 7,1.4 l0.08000000000000002,1 l0.39000000000000007,4.72 l0.09000000000000002,1 c-1.59,-0.07 -3.67,0.48000000000000004 -4.9,3.44 c-2.19,5.23 -7,16.58 -7,16.58 s-10.77,10 -4.24,19.28 a6.68,6.68 0 0 0 1,1.1600000000000001 c4.69,4.26 14.69,1.53 21.8,-1.25 a21.26,21.26 0 0 0 9,-7.26 a3.42,3.42 0 0 1 2.4,-1.33 a9.8,9.8 0 0 0 4.47,-1.9500000000000002 a6,6 0 0 0 2.46,-5 a0.7600000000000001,0.7600000000000001 0 0 1 0,-0.15000000000000002 l-0.6300000000000001,-14.23 s-0.77,-9.94 -3.22,-9.3 l-0.6300000000000001,0.15000000000000002 l-0.17,-1 h0 l-0.33000000000000007,-1.9300000000000002 l-0.17,-1 l1.36,0 s0.3400000000000001,-11.24 4.45,-20.08 S446.6699966430664,662.8199996948242 446.6699966430664,662.8199996948242 s50.87,0.8300000000000001 52.57,-3.94 v0 c1,0 2.09,0 3.13,-0.07 c1.71,4.77 49.72,5 49.72,5 s2.73,71.49 6.83,80.34 a40.82,40.82 0 0 1 2.15,5.86 h0 a65.41,65.41 0 0 1 2.31,14.21 l1.36,0 l-0.18000000000000002,1 l-0.33000000000000007,1.92 l-0.17,1 l-0.6500000000000001,-0.15000000000000002 c-2.43,-0.6300000000000001 -3.2,9.31 -3.2,9.31 l-0.6500000000000001,14.32 a5.8100000000000005,5.8100000000000005 0 0 0 2.38,5 a10,10 0 0 0 4.55,2 a3.34,3.34 0 0 1 2.4,1.32 a21.32,21.32 0 0 0 9,7.26 c7.68,3 18.72,5.93 22.82,0.1 C607.2899966430664,797.9999996948242 596.5199966430664,788.0399996948242 596.5199966430664,788.0399996948242 zM467.21999664306645,609.6999996948242 v0 l0.12000000000000001,0 zM547.5699966430664,568.8199996948242 s1.29,4.85 3.59,7.4 s1.1600000000000001,18.39 1.1600000000000001,18.39 a14.2,14.2 0 0 0 -2.68,0.43000000000000005 C547.8699966430664,584.5099996948243 546.2399966430664,572.8199996948242 547.5699966430664,568.8199996948242 z" fill="url(#f9d7795c-47ab-4264-adf8-fc9a284cd87a)" id="svg_50"/><polygon points="436.96 768.43 416.85 770.43 416.29 763.7 415.9 759.07 415.35 752.3 434.35 753.3 435.86 761.99 436.18 763.88 436.19 763.88 436.96 768.43" fill="#8e6f7f" id="svg_51"/><polygon points="583.41 753.31 582.86 760.07 582.48 764.7 581.91 771.43 561.79 769.43 562.59 764.88 562.9 763 564.41 754.31 583.41 753.31" fill="#8e6f7f" id="svg_52"/><path d="M562.0999966430664,655.9199996948242 l-59.8,2.81 q-4.08,0.2 -8.16,0 l-57.13,-2.8 V610.6699996948242 H562.0999966430664 z" fill="#5f5570" id="svg_53"/><path d="M562.0999966430664,655.9199996948242 l-59.8,2.81 q-4.08,0.2 -8.16,0 l-57.13,-2.8 V610.6699996948242 H562.0999966430664 z" opacity="0.1" id="svg_54"/><path d="M485.5199966430664,488.7299996948242 s-19.92,6.69 -27.42,12.19 c-1.56,1.1400000000000001 -3,2.08 -4.26,2.85 A24.4,24.4 0 0 0 443.7699966430664,516.0499996948242 c-0.05000000000000001,0.14 -0.1,0.26 -0.15000000000000002,0.37000000000000005 c-1,2.25 -5.75,17.5 -5.75,17.5 s-3.5,8.5 -4,14 s28.5,20.25 28.5,20.25 s-14,30.5 -7.75,38.25 s97.5,11.5 95.5,0 s-5.5,-30.5 -3.75,-35.75 l31,-22.5 s-1.25,-31.5 -11,-39.75 s-22,-11.25 -22,-11.25 l-19.41,-5 s-6.84,17 -14.34,19.25 S486.68999664306637,503.27999969482426 485.5199966430664,488.7299996948242 z" fill="#eaeaf2" id="svg_55"/><path d="M513.4999966430664,517.3599996948242 s-8.46,7.06 -12.9,0 c0,0 -4,11.94 0,15.94 l-0.15000000000000002,0.81 l-0.7100000000000001,3.56 l-9.26,77 L498.09999664306645,627.8199996948242 L511.96999664306645,610.4199996948242 l-1.12,-72 l-0.5,-4.13 l-0.12000000000000001,-1 h2.37 S518.8899966430664,522.4199996948242 513.4999966430664,517.3599996948242 z" opacity="0.1" id="svg_56"/><path d="M515.4999966430664,517.3599996948242 s-8.46,7.06 -12.9,0 c0,0 -4,11.94 0,15.94 l-0.15000000000000002,0.81 l-0.7100000000000001,3.56 l-9.26,77 L500.09999664306645,627.8199996948242 L513.9699966430665,610.4199996948242 l-1.12,-72 l-0.5,-4.13 l-0.12000000000000001,-1 h2.37 S520.8899966430664,522.4199996948242 515.4999966430664,517.3599996948242 z" opacity="0.1" id="svg_57"/><polygon points="512.97 609.43 499.1 626.8 491.46 613.72 500.73 536.68 501.44 533.12 501.6 532.3 502.85 529.06 511.23 532.3 511.35 533.3 511.85 537.43 512.97 609.43" fill="#bc8487" id="svg_58"/><path d="M435.85999664306644,761.9799996948242 a67.93,67.93 0 0 1 -12.85,-1.31 c-2.09,-0.52 -4.71,-1.1 -7.1,-1.61 l-0.56,-6.77 l19,1 z" opacity="0.1" id="svg_59"/><path d="M499.2499966430664,658.8199996948242 c-1.6600000000000001,4.67 -51.24,3.85 -51.24,3.85 s-2.66,70 -6.66,78.67 s-4.34,19.66 -4.34,19.66 s-8.66,0 -14,-1.33 s-14,-3 -14,-3 l2.34,-118.75 s1,-1.25 3.33,-8.76 c1.5,-4.83 10.3,-11.09 16.39,-15 c3.4,-2.14 5.94,-3.54 5.94,-3.54 l29.58,1.2 l18.26,0.7400000000000001 S500.9199966430664,654.1499996948243 499.2499966430664,658.8199996948242 z" fill="#5f5570" id="svg_60"/><path d="M436.96999664306645,768.4199996948242 l-20.12,2 l-0.5700000000000001,-6.73 a6,6 0 0 1 2.19,0.48000000000000004 c3.67,2.64 14.16,0.54 17.71,-0.30000000000000004 h0 z" opacity="0.1" id="svg_61"/><path d="M440.7699966430664,787.8699996948242 a5.87,5.87 0 0 1 -2.41,4.890000000000001 a9.55,9.55 0 0 1 -4.35,1.9100000000000001 a3.25,3.25 0 0 0 -2.33,1.3 a20.87,20.87 0 0 1 -8.8,7.11 c-6.93,2.72 -16.68,5.39 -21.25,1.22 a6.32,6.32 0 0 1 -1,-1.13 c-6.37,-9.12 4.13,-18.88 4.13,-18.88 s4.74,-11.12 6.87,-16.24 a5,5 0 0 1 6.87,-2.88 c4,2.88 16.13,0.12000000000000001 18.5,-0.49000000000000005 s3.13,9.11 3.13,9.11 L440.7699966430664,787.7199996948242 A0.7600000000000001,0.7600000000000001 0 0 0 440.7699966430664,787.8699996948242 z" fill="#bc8487" id="svg_62"/><path d="M583.4199966430664,753.2999996948242 l-0.56,6.76 c-2.39,0.51 -5,1.09 -7.11,1.61 a68.11,68.11 0 0 1 -12.84,1.32 l1.51,-8.69 z" opacity="0.1" id="svg_63"/><path d="M589.7699966430664,757.6699996948242 s-8.66,1.6700000000000002 -14,3 s-14,1.33 -14,1.33 s-0.33000000000000007,-11 -4.33,-19.66 S550.7699966430664,663.6699996948242 550.7699966430664,663.6699996948242 s-46.78,-0.27 -48.45,-4.94 s20.39,-45 20.39,-45 l13.45,-0.7000000000000001 L561.7699966430664,611.6699996948242 s5,2.72 10.24,6.39 s10.93,8.33 12.1,12.1 c2.33,7.51 3.33,8.76 3.33,8.76 z" fill="#5f5570" id="svg_64"/><path d="M582.4799966430664,764.6899996948242 l-0.56,6.73 l-20.13,-2 l0.8,-4.55 c3.55,0.8500000000000001 14,2.94 17.7,0.30000000000000004 A6,6 0 0 1 582.4799966430664,764.6899996948242 z" opacity="0.1" id="svg_65"/><path d="M580.2899966430664,766.1699996948242 a5,5 0 0 1 6.88,2.88 c2.12,5.12 6.87,16.25 6.87,16.25 s10.5,9.75 4.13,18.87 c-4,5.72 -14.76,2.85 -22.24,-0.09000000000000002 a20.74,20.74 0 0 1 -8.8,-7.11 a3.26,3.26 0 0 0 -2.34,-1.3 a9.81,9.81 0 0 1 -4.44,-2 a5.72,5.72 0 0 1 -2.31,-4.88 l0.6300000000000001,-14 s0.7500000000000001,-9.73 3.12,-9.12 S576.2899966430664,769.0499996948242 580.2899966430664,766.1699996948242 z" fill="#bc8487" id="svg_66"/><path d="M528.5999966430664,497.16999969482424 l-20.19,21.4 l-0.56,0.6000000000000001 l-0.7300000000000001,-0.43000000000000005 c-4.22,-2.5 -25.33,-15.24 -23.52,-19.07 c1,-2.18 1.59,-6.72 1.9,-10.63 c0,-0.47000000000000003 0.06000000000000001,-0.93 0.1,-1.3800000000000001 c0.2,-3.09 0.25,-5.49 0.25,-5.49 s38,-6.5 36.5,0 c-0.6100000000000001,2.63 0.30000000000000004,5.59 1.59,8.18 c0.38000000000000006,0.7500000000000001 0.8,1.46 1.21,2.13 A33,33 0 0 0 528.5999966430664,497.16999969482424 z" fill="#ffc4d0" id="svg_67"/><path d="M523.9399966430664,490.3499996948242 a29.65,29.65 0 0 1 -38.34,-2.6900000000000004 c0.2,-3.09 0.25,-5.49 0.25,-5.49 s38,-6.5 36.5,0 C521.7699966430664,484.8199996948242 522.6499966430664,487.7599996948243 523.9399966430664,490.3499996948242 z" opacity="0.1" id="svg_68"/><path d="M536.0099966430664,465.4599996948242 A29.67,29.67 0 0 1 476.7699966430664,468.2799996948242 q-0.12000000000000001,-1.4 -0.12000000000000001,-2.8200000000000003 a29.67,29.67 0 1 1 59.33,0 z" fill="#ffc4d0" id="svg_69"/><path d="M535.6399966430664,460.7199996948242 a7.1,7.1 0 0 1 -5.58,1.51 c-4.58,-1 -6.15,-8 -10.83,-8.48 s-7.79,6 -12.53,5.87 c-2,-0.05000000000000001 -3.8,-1.36 -5.640000000000001,-2.27 c-3.22,-1.59 -8.52,-2.56 -12,-1.36 c-5.23,1.79 -7,6.63 -10.34,10.48 a15.25,15.25 0 0 1 -1.87,1.81 q-0.12000000000000001,-1.4 -0.12000000000000001,-2.8200000000000003 a29.67,29.67 0 0 1 59,-4.74 z" opacity="0.1" id="svg_70"/><path d="M501.05999664306637,456.35999969482424 c1.84,0.9 3.6,2.22 5.640000000000001,2.27 c4.73,0.12000000000000001 7.82,-6.39 12.52,-5.88 s6.25,7.45 10.85,8.48 c3.09,0.7000000000000001 6,-1.61 8.31,-3.7600000000000002 a13.23,13.23 0 0 0 3.5700000000000003,-4.39 c1,-2.48 0.48000000000000004,-5.34 -0.45,-7.86 s-2.24,-4.94 -2.7,-7.59 c-0.56,-3.18 0.09000000000000002,-6.66 -1.42,-9.52 a8.43,8.43 0 0 0 -5.94,-4.1 a14,14 0 0 0 -7.33,0.8300000000000001 a10.37,10.37 0 0 1 -3.6100000000000003,1 a7.640000000000001,7.640000000000001 0 0 1 -2.6500000000000004,-0.6500000000000001 a39.13,39.13 0 0 1 -8.18,-4.41 a38.35,38.35 0 0 0 -5.83,-3.84 a7.86,7.86 0 0 0 -6.74,-0.27 c-3.6,1.84 -4.29,7 -7.640000000000001,9.23 c-2.31,1.56 -5.32,1.4 -8.1,1.51 s-6,0.78 -7.32,3.21 c-1.18,2.09 -0.5900000000000001,4.66 -0.44000000000000006,7.05 a18.1,18.1 0 0 1 -1.11,7.4 c-1.55,4.14 -4.7,8.22 -3.58,12.5 c0.7300000000000001,2.81 3.25,5.14 3.1,8 a15.25,15.25 0 0 0 -0.19000000000000003,2.23 a1.6500000000000001,1.6500000000000001 0 0 0 1.31,1.6 a2,2 0 0 0 1.12,-0.36000000000000004 a16.72,16.72 0 0 0 4.41,-3.5700000000000003 c3.38,-3.8600000000000003 5.13,-8.69 10.36,-10.48 C492.5499966430664,453.8199996948242 497.83999664306646,454.7599996948242 501.05999664306637,456.35999969482424 z" fill="#8e6f7f" id="svg_71"/><path d="M535.4699966430665,630.9199996948242 l-5.4,1.47 L517.5999966430664,635.8199996948242 a30.13,30.13 0 0 1 -9.59,4.77 c-7.63,1.9300000000000002 -12.56,-2.27 -16.66,-8.77 c-1.6500000000000001,-2.6 -0.8200000000000001,-4.68 1.34,-6.3100000000000005 c5.2,-3.93 18.06,-5.21 22,-4.69 a16.46,16.46 0 0 0 7.59,-1.18 a29.4,29.4 0 0 0 4.91,-2.3200000000000003 z" fill="#ffc4d0" id="svg_72"/><path d="M535.4699966430665,630.9199996948242 l-5.4,1.47 c-1.55,-4.67 -4.1,-10.53 -7.75,-12.78 a29.4,29.4 0 0 0 4.91,-2.3200000000000003 z" opacity="0.1" id="svg_73"/><path d="M571.9899966430664,618.0599996948242 c-2.24,1.81 -4.14,3.46 -4.14,3.46 s-26,8.15 -31,18.4 c0,0 -4,-20 -12.5,-20.25 c0,0 9.15,-3.59 11.79,-6.66 L561.7699966430664,611.6699996948242 S566.7699966430664,614.3899996948243 571.9899966430664,618.0599996948242 z" opacity="0.1" id="svg_74"/><path d="M571.5999966430664,539.6699996948242 l5.75,8.5 l1.75,26.5 s0.5,25.5 0,26.5 l0.5,-1 s-1,10 -4,11.75 s-9.75,7.6 -9.75,7.6 s-26,8.15 -31,18.4 c0,0 -4,-20 -12.5,-20.25 c0,0 12.75,-5 12.5,-8.25 c0,0 9.75,-8.75 10.5,-11 s5.62,-2.5 5.62,-2.5 s1.13,-15.5 -1.12,-18 s-3.5,-7.25 -3.5,-7.25 z" fill="#eaeaf2" id="svg_75"/><path d="M508.0099966430664,640.5599996948242 c-7.63,1.9300000000000002 -12.56,-2.27 -16.66,-8.77 c-1.6500000000000001,-2.6 -0.8200000000000001,-4.68 1.34,-6.3100000000000005 l0.78,0.31000000000000005 S507.21999664306645,631.7499996948242 508.0099966430664,640.5599996948242 z" opacity="0.1" id="svg_76"/><path d="M504.84999664306645,648.5499996948242 c-9,12.5 -25.75,-4.88 -27,-8.38 c-0.45,-1.27 -2.16,-2.4 -4.13,-3.31 a44.58,44.58 0 0 0 -7.75,-2.5700000000000003 l14.88,-12.12 l2.85,1.1400000000000001 L492.46999664306645,626.8199996948242 S513.8499966430664,636.0499996948242 504.84999664306645,648.5499996948242 z" fill="#ffc4d0" id="svg_77"/><path d="M483.69999664306636,623.3099996948242 c-8.2,3.9 -9.95,9.51 -10,13.55 a44.58,44.58 0 0 0 -7.75,-2.5700000000000003 l14.88,-12.12 z" opacity="0.1" id="svg_78"/><path d="M470.59999664306645,644.9199996948242 s-24,-19 -35.5,-27.25 a28.12,28.12 0 0 1 -4,-3.46 c3.4,-2.14 5.94,-3.54 5.94,-3.54 l29.58,1.2 c0.79,1.37 1.26,2.3 1.26,2.3 l16,10.5 C464.59999664306645,630.9199996948242 470.59999664306645,644.9199996948242 470.59999664306645,644.9199996948242 z" opacity="0.1" id="svg_79"/><path d="M438.59999664306645,545.1699996948242 l-4.75,2.75 s-5.75,18.25 -4.25,30.25 c0,0 -4.5,17.25 -2.75,20 c0,0 -2.25,9.25 9.25,17.5 s35.5,27.25 35.5,27.25 s-6,-14 13.25,-20.25 l-16,-10.5 s-5.37,-10.66 -10.5,-13 c0,0 -4,-4 -1.5,-6.75 s4.5,-5.75 4.5,-8.5 s1,-15.75 1,-15.75 l3,-14 z" fill="#eaeaf2" id="svg_80"/><path d="M511.34999664306645,533.2899996948242 h-9.75 a1.29,1.29 0 0 1 -0.16000000000000003,-0.18000000000000002 l0.16000000000000003,-0.8200000000000001 l1.25,-3.24 l8.38,3.24 z" opacity="0.1" id="svg_81"/><path d="M514.4999966430664,516.3599996948242 s-8.46,7.06 -12.9,0 c0,0 -4,11.94 0,15.94 h12 S519.8899966430664,521.4199996948242 514.4999966430664,516.3599996948242 z" fill="#bc8487" id="svg_82"/><path d="M525.9399966430664,493.16999969482424 l12.6,3.25 s-11.94,31 -14.57,31 l-15.12,-7.25 z" opacity="0.1" id="svg_83"/><path d="M528.5999966430664,497.16999969482424 l-20.19,21.4 l-0.56,0.6000000000000001 l-0.7300000000000001,-0.43000000000000005 L524.7699966430664,491.8199996948242 l0.43000000000000005,0.7100000000000001 A33,33 0 0 0 528.5999966430664,497.16999969482424 z" opacity="0.1" id="svg_84"/><path d="M524.9399966430664,492.16999969482424 l12.6,3.25 s-11.94,31 -14.57,31 l-15.12,-7.25 z" fill="#eaeaf2" id="svg_85"/><path d="M484.5199966430664,489.7299996948242 l-10.92,3.44 s10.75,32.5 13.75,34.25 l19.5,-7.25 z" opacity="0.1" id="svg_86"/><path d="M508.4099966430664,518.5699996948242 l-0.56,0.6000000000000001 s-26.25,-15.25 -24.25,-19.5 c1,-2.18 1.59,-6.72 1.9,-10.63 l0,-0.6100000000000001 z" opacity="0.1" id="svg_87"/><path d="M485.5199966430664,488.7299996948242 l-10.92,3.44 s10.75,32.5 13.75,34.25 l19.5,-7.25 z" fill="#eaeaf2" id="svg_88"/><path d="M459.5099966430664,541.8199996948242 s6.58,1.17 6.46,8 s2.71,-8.83 2.71,-8.83 z" opacity="0.1" id="svg_89"/><path d="M461.0099966430664,562.8199996948242 s-1.83,10.33 0,19.67 s1.6700000000000002,12.5 3.09,13 S461.0099966430664,562.8199996948242 461.0099966430664,562.8199996948242 z" opacity="0.1" id="svg_90"/><path d="M545.0099966430664,561.8199996948242 a3.62,3.62 0 0 0 -3,4.67 C542.8499966430664,570.6699996948242 545.0099966430664,561.8199996948242 545.0099966430664,561.8199996948242 z" opacity="0.1" id="svg_91"/><path d="M430.6799966430664,596.8199996948242 s21.43,-1.83 25,2 S430.6799966430664,596.8199996948242 430.6799966430664,596.8199996948242 z" opacity="0.1" id="svg_92"/><path d="M555.0099966430664,598.2699996948243 s15.67,-1.9300000000000002 19.34,0.7400000000000001 " opacity="0.1" id="svg_93"/><path d="M561.3499966430664,600.8199996948242 s9.33,0.33000000000000007 11.5,1.5 " opacity="0.1" id="svg_94"/><path d="M563.1799966430664,604.1699996948242 s8.5,-0.33000000000000007 9.67,1 " opacity="0.1" id="svg_95"/><path d="M443.30999664306637,651.1699996948242 s7.28,3.79 6.54,7.66 S443.30999664306637,651.1699996948242 443.30999664306637,651.1699996948242 z" opacity="0.1" id="svg_96"/><path d="M437.0099966430664,653.0099996948243 s11.11,14.41 9.6,19.16 S437.0099966430664,653.0099996948243 437.0099966430664,653.0099996948243 z" opacity="0.1" id="svg_97"/><path d="M556.0999966430664,655.3999996948243 s-5.5,4.53 -5.35,8.27 " opacity="0.1" id="svg_98"/><path d="M429.09999664306645,744.6699996948242 s0,4.25 7.87,10.5 " opacity="0.1" id="svg_99"/><path d="M568.0099966430664,734.6699996948242 s-0.8400000000000001,8.84 -8.5,13.42 " opacity="0.1" id="svg_100"/><g opacity="0.1" id="svg_101"><path d="M473.59999664306645,434.6299996948242 c0,-0.6900000000000002 -0.12000000000000001,-1.4 -0.18000000000000002,-2.1 a20.17,20.17 0 0 0 0.14,4.58 A18.64,18.64 0 0 0 473.59999664306645,434.6299996948242 z" id="svg_102"/><path d="M472.0099966430664,462.5699996948242 c0.15000000000000002,-2.9 -2.37,-5.23 -3.1,-8 a2.7,2.7 0 0 1 -0.08000000000000002,-0.41000000000000003 a7.71,7.71 0 0 0 0.08000000000000002,3.41 c0.5900000000000001,2.29 2.37,4.25 2.93,6.47 C471.8899966430664,463.5199996948242 471.98999664306643,463.04999969482424 472.0099966430664,462.5699996948242 z" id="svg_103"/><path d="M541.9499966430664,450.0799996948242 a13.33,13.33 0 0 1 -3.5700000000000003,4.39 c-2.33,2.15 -5.22,4.46 -8.31,3.7600000000000002 c-4.59,-1 -6.17,-8 -10.85,-8.48 s-7.79,6 -12.52,5.87 c-2,-0.05000000000000001 -3.8,-1.36 -5.640000000000001,-2.27 c-3.22,-1.59 -8.51,-2.56 -12,-1.36 c-5.23,1.79 -7,6.63 -10.36,10.48 a16.87,16.87 0 0 1 -4.4,3.58 a2.12,2.12 0 0 1 -1.13,0.35000000000000003 a1.3900000000000001,1.3900000000000001 0 0 1 -1.12,-0.9 v0.07 a15.39,15.39 0 0 0 -0.19000000000000003,2.24 a1.6500000000000001,1.6500000000000001 0 0 0 1.31,1.59 a2.12,2.12 0 0 0 1.13,-0.35000000000000003 a16.87,16.87 0 0 0 4.4,-3.58 c3.38,-3.85 5.13,-8.69 10.36,-10.48 c3.5300000000000002,-1.2 8.82,-0.23 12,1.36 c1.84,0.91 3.6,2.22 5.640000000000001,2.27 c4.73,0.12000000000000001 7.82,-6.39 12.52,-5.87 s6.26,7.44 10.85,8.48 c3.09,0.7000000000000001 6,-1.61 8.31,-3.7600000000000002 a13.33,13.33 0 0 0 3.5700000000000003,-4.39 a8.44,8.44 0 0 0 0.43000000000000005,-4.54 A7.07,7.07 0 0 1 541.9499966430664,450.0799996948242 z" id="svg_104"/></g><path d="M404.7699966430664,784.2999996948242 s8.17,-2.52 11.56,2.26 " opacity="0.1" id="svg_105"/><path d="M594.0399966430664,785.2999996948242 s-13.53,-0.79 -13,2.87 " opacity="0.1" id="svg_106"/><ellipse cx="864.1699829101562" cy="773.3400268554688" rx="26.93000030517578" ry="4.550000190734863" fill="#38d39f" opacity="0.1" id="svg_107"/><ellipse cx="91.08999633789062" cy="810.6799926757812" rx="26.93000030517578" ry="4.550000190734863" fill="#38d39f" opacity="0.1" id="svg_108"/><ellipse cx="195.25999450683594" cy="835.0900268554688" rx="26.93000030517578" ry="4.550000190734863" fill="#38d39f" opacity="0.1" id="svg_109"/><ellipse cx="805.219970703125" cy="822.0999755859375" rx="40.209999084472656" ry="6.800000190734863" fill="#e0b973" id="svg_110" class="" fill-opacity="1"/><path d="M821.8499966430664,810.9799996948242 a11.71,11.71 0 0 0 3.83,-5.79 c0.5,-2.29 -0.48000000000000004,-5 -2.68,-5.890000000000001 c-2.46,-0.9400000000000001 -5.09,0.77 -7.08,2.49 s-4.28,3.6900000000000004 -6.890000000000001,3.3200000000000003 a10.48,10.48 0 0 0 3.25,-9.81 a4.13,4.13 0 0 0 -0.91,-2 c-1.36,-1.46 -3.84,-0.8400000000000001 -5.47,0.32000000000000006 c-5.2,3.6500000000000004 -6.65,10.72 -6.68,17.07 c-0.53,-2.29 -0.08000000000000002,-4.68 -0.1,-7 s-0.6500000000000001,-5 -2.64,-6.23 a7.94,7.94 0 0 0 -4,-0.9400000000000001 c-2.34,-0.09000000000000002 -4.94,0.15000000000000002 -6.54,1.86 c-2,2.12 -1.46,5.68 0.26,8 s4.35,3.81 6.77,5.42 a15,15 0 0 1 4.83,4.61 a4.16,4.16 0 0 1 0.36000000000000004,0.8300000000000001 H812.7699966430664 A41.06,41.06 0 0 0 821.8499966430664,810.9799996948242 z" fill="#e0b973" id="svg_111" class="" fill-opacity="1"/><path d="M196.6499966430664,723.2699996948243 s5.5,7.19 -2.5300000000000002,18 s-14.65,20 -12,26.77 c0,0 12.12,-20.15 22,-20.43 S207.49999664306642,735.3899996948243 196.6499966430664,723.2699996948243 z" fill="#e0b973" id="svg_112" class="selected" fill-opacity="1"/><path d="M196.6499966430664,723.2699996948243 a8.83,8.83 0 0 1 1.12,2.26 c9.620000000000001,11.3 14.75,21.85 5.5,22.11 c-8.61,0.25 -18.94,15.65 -21.42,19.54 c0.08000000000000002,0.30000000000000004 0.18000000000000002,0.5900000000000001 0.29000000000000004,0.8900000000000001 c0,0 12.12,-20.15 22,-20.43 S207.49999664306642,735.3899996948243 196.6499966430664,723.2699996948243 z" opacity="0.1" id="svg_113"/><path d="M206.85999664306638,732.4299996948242 c0,2.5300000000000002 -0.28,4.58 -0.6300000000000001,4.58 s-0.6300000000000001,-2.05 -0.6300000000000001,-4.58 s0.35000000000000003,-1.34 0.7000000000000001,-1.34 S206.85999664306638,729.8999996948243 206.85999664306638,732.4299996948242 z" fill="#ffd037" id="svg_114"/><path d="M210.36999664306643,735.4499996948242 c-2.22,1.21 -4.16,1.94 -4.32,1.6300000000000001 s1.49,-1.54 3.71,-2.75 s1.35,-0.33000000000000007 1.51,0 S212.5899966430664,734.2399996948242 210.36999664306643,735.4499996948242 z" fill="#ffd037" id="svg_115"/><path d="M167.6399966430664,723.2699996948243 s-5.5,7.19 2.5300000000000002,18 s14.65,20 12,26.77 c0,0 -12.11,-20.15 -22,-20.43 S156.7699966430664,735.3899996948243 167.6399966430664,723.2699996948243 z" fill="#e0b973" id="svg_116" class="selected" fill-opacity="1"/><path d="M167.6399966430664,723.2699996948243 a9,9 0 0 0 -1.13,2.26 c-9.620000000000001,11.3 -14.74,21.85 -5.5,22.11 c8.620000000000001,0.25 18.95,15.65 21.43,19.54 a7.76,7.76 0 0 1 -0.30000000000000004,0.8900000000000001 s-12.11,-20.15 -22,-20.43 S156.7699966430664,735.3899996948243 167.6399966430664,723.2699996948243 z" opacity="0.1" id="svg_117"/><path d="M157.4199966430664,732.4299996948242 c0,2.5300000000000002 0.29000000000000004,4.58 0.6400000000000001,4.58 s0.6300000000000001,-2.05 0.6300000000000001,-4.58 s-0.35000000000000003,-1.34 -0.7000000000000001,-1.34 S157.4199966430664,729.8999996948243 157.4199966430664,732.4299996948242 z" fill="#ffd037" id="svg_118"/><path d="M153.9199966430664,735.4499996948242 c2.22,1.21 4.15,1.94 4.32,1.6300000000000001 s-1.5,-1.54 -3.72,-2.75 s-1.34,-0.33000000000000007 -1.51,0 S151.6999966430664,734.2399996948242 153.9199966430664,735.4499996948242 z" fill="#ffd037" id="svg_119"/><path d="M159.1699966430664,767.1299996948242 s15.36,-0.48000000000000004 20,-3.77 s23.63,-7.24 24.77,-1.9500000000000002 s23.09,26.29 5.75,26.43 s-40.3,-2.7 -44.92,-5.51 S159.1699966430664,767.1299996948242 159.1699966430664,767.1299996948242 z" fill="#a8a8a8" id="svg_120"/><path d="M209.98999664306643,785.9999996948242 c-17.34,0.14 -40.3,-2.7 -44.92,-5.51 c-3.51,-2.15 -4.92,-9.84 -5.39,-13.38 l-0.51,0 s1,12.38 5.59,15.2 s27.58,5.65 44.92,5.51 c5,0 6.73,-1.82 6.640000000000001,-4.46 C215.61999664306643,784.9799996948242 213.7099966430664,785.9699996948242 209.98999664306643,785.9999996948242 z" opacity="0.2" id="svg_121"/></g></svg>